<?xml version="1.0" encoding="UTF-8"?>
<svg version="1.1" xmlns="http://www.w3.org/2000/svg" width="299" height="300">
<path d="M0 0 C2.11982727 1.47817993 2.11982727 1.47817993 4.23950195 3.57666016 C5.44018059 4.74885605 5.44018059 4.74885605 6.66511536 5.94473267 C7.5142601 6.80086151 8.36340485 7.65699036 9.23828125 8.5390625 C10.55943184 9.84948013 10.55943184 9.84948013 11.90727234 11.18637085 C14.24313107 13.51244744 16.56609952 15.85059175 18.88580322 18.19274902 C20.31050495 19.62299718 21.74542984 21.04205837 23.18481445 22.45751953 C25.94778677 25.17750964 28.68949576 27.91725435 31.42578125 30.6640625 C32.28504715 31.50804596 33.14431305 32.35202942 34.02961731 33.22158813 C34.81430893 34.02196503 35.59900055 34.82234192 36.4074707 35.64697266 C37.10298538 36.34424469 37.79850006 37.04151672 38.51509094 37.75991821 C40.4494559 40.67803343 40.37950419 42.5659094 40 46 C38.56860352 47.81396484 38.56860352 47.81396484 36.56640625 49.3359375 C31.76179426 53.19022161 27.34661141 57.32602143 22.9375 61.625 C22.15439453 62.36234375 21.37128906 63.0996875 20.56445312 63.859375 C19.83033203 64.57867187 19.09621094 65.29796875 18.33984375 66.0390625 C17.67331787 66.68053223 17.00679199 67.32200195 16.32006836 67.98291016 C14.74123864 69.95205101 14.74123864 69.95205101 15.17529297 72.52416992 C15.91070366 74.73192593 16.686299 76.57158146 17.85546875 78.57421875 C18.22784668 79.23244629 18.60022461 79.89067383 18.98388672 80.56884766 C19.3810791 81.26800293 19.77827148 81.9671582 20.1875 82.6875 C29.73643413 100.14764816 34.26300059 119.14707845 35 139 C35.061875 140.48113281 35.061875 140.48113281 35.125 141.9921875 C35.88137395 178.39268364 24.57700114 213.62855155 -0.5703125 240.47265625 C-1.37210938 241.30667969 -2.17390625 242.14070312 -3 243 C-3.44182617 243.4729248 -3.88365234 243.94584961 -4.33886719 244.43310547 C-11.8470337 252.46114851 -19.83389667 258.94732369 -29 265 C-29.81726563 265.55171875 -30.63453125 266.1034375 -31.4765625 266.671875 C-44.79463794 275.1844593 -59.71501134 280.3661362 -75 284 C-76.46759766 284.35191406 -76.46759766 284.35191406 -77.96484375 284.7109375 C-112.27938619 292.19183301 -147.34945511 284.7833359 -177.546875 267.87109375 C-179.88823911 266.75648896 -179.88823911 266.75648896 -181.81176758 267.60302734 C-184.78236948 269.49946649 -187.0623669 271.93469642 -189.46484375 274.48046875 C-190.52219761 275.5728359 -191.58015879 276.66461548 -192.63867188 277.75585938 C-194.2954983 279.47475214 -195.94721793 281.19776396 -197.58862305 282.93139648 C-199.17980193 284.60710898 -200.78918103 286.26344732 -202.40234375 287.91796875 C-202.88895981 288.44182663 -203.37557587 288.96568451 -203.87693787 289.50541687 C-205.29272461 290.94213867 -205.29272461 290.94213867 -208 293 C-211.68106684 292.94309687 -212.68566804 292.29632604 -215.38671875 289.75 C-216.14597656 288.8425 -216.90523437 287.935 -217.6875 287 C-220.44820962 283.50290207 -220.44820962 283.50290207 -224 281 C-224 280.34 -224 279.68 -224 279 C-224.66 279 -225.32 279 -226 279 C-226 278.34 -226 277.68 -226 277 C-226.66 277 -227.32 277 -228 277 C-229.68732277 275.01739574 -231.35366057 273.0167658 -233 271 C-233.66 270.67 -234.32 270.34 -235 270 C-235 269.34 -235 268.68 -235 268 C-235.59401611 267.72978027 -236.18803223 267.45956055 -236.80004883 267.18115234 C-240.33771803 265.28178007 -242.87504785 262.45302497 -245.6875 259.625 C-246.57791992 258.75875 -246.57791992 258.75875 -247.48632812 257.875 C-248.05158203 257.31039063 -248.61683594 256.74578125 -249.19921875 256.1640625 C-249.71315186 255.65311035 -250.22708496 255.1421582 -250.7565918 254.61572266 C-252.19891319 252.74152612 -252.67719288 251.33311014 -253 249 C-252.0234375 247.31640625 -252.0234375 247.31640625 -250.375 245.5625 C-249.73949219 244.88316406 -249.10398438 244.20382813 -248.44921875 243.50390625 C-247.23685547 242.26447266 -247.23685547 242.26447266 -246 241 C-245.21810303 240.18958252 -245.21810303 240.18958252 -244.42041016 239.36279297 C-242.68462151 237.56665487 -240.93852529 235.78128216 -239.1875 234 C-238.32487549 233.1174353 -238.32487549 233.1174353 -237.44482422 232.21704102 C-236.00185438 230.77172523 -234.50489811 229.3807177 -233 228 C-232.34 228 -231.68 228 -231 228 C-230.71125 227.4225 -230.4225 226.845 -230.125 226.25 C-229 224 -229 224 -227.7109375 222.28125 C-226.67404499 219.82658242 -226.67404499 219.82658242 -228.34375 216.890625 C-229.05078833 215.67022271 -229.77045104 214.45708047 -230.5 213.25 C-248.732267 181.07517904 -251.61771599 141.50871062 -242.16040039 106.12255859 C-237.89646404 91.12234232 -230.63613221 76.95419832 -222 64 C-221.34 64 -220.68 64 -220 64 C-219.773125 63.29230469 -219.54625 62.58460937 -219.3125 61.85546875 C-217.74140469 58.43740128 -215.56641332 55.99955103 -213 53.3125 C-212.50653076 52.78922119 -212.01306152 52.26594238 -211.50463867 51.72680664 C-210.49011362 50.65540448 -209.47212871 49.58726775 -208.45068359 48.52246094 C-207.15271922 47.16027551 -205.88112154 45.77307926 -204.61328125 44.3828125 C-189.23380433 28.03722243 -167.62213107 16.61314388 -146.3125 10.25 C-145.31633667 9.95198486 -145.31633667 9.95198486 -144.30004883 9.64794922 C-142.20924962 9.05203698 -140.11221925 8.51479772 -138 8 C-137.25282715 7.81163574 -136.5056543 7.62327148 -135.73583984 7.42919922 C-127.13207472 5.55283727 -118.46078148 5.62780368 -109.69677734 5.62939453 C-107.0328618 5.62505355 -104.37065171 5.58872737 -101.70703125 5.55078125 C-89.67663056 5.47336366 -78.64761362 7.04053288 -67 10 C-66.00411865 10.24427734 -65.0082373 10.48855469 -63.98217773 10.74023438 C-53.79437156 13.35209237 -43.68279384 18.66371986 -34.83203125 24.25 C-32.47738701 25.21394818 -31.34125843 24.90803524 -29 24 C-27.9805881 23.01979625 -26.97753644 22.02196992 -26 21 C-25.34 21 -24.68 21 -24 21 C-23.74710205 20.42475586 -23.4942041 19.84951172 -23.23364258 19.25683594 C-20.87813357 14.94764828 -17.12335045 11.71168392 -13.6875 8.25 C-12.92759766 7.45722656 -12.16769531 6.66445312 -11.38476562 5.84765625 C-10.27198242 4.72423828 -10.27198242 4.72423828 -9.13671875 3.578125 C-8.46342529 2.89137695 -7.79013184 2.20462891 -7.09643555 1.49707031 C-4.43630939 -0.402533 -3.21961199 -0.38761877 0 0 Z M-136 73 C-137.06992188 73.44601563 -138.13984375 73.89203125 -139.2421875 74.3515625 C-157.8165096 82.81162269 -172.12976686 99.46621263 -180 118 C-180.43570313 118.99644531 -180.87140625 119.99289063 -181.3203125 121.01953125 C-184.28024453 129.24731434 -184.40969988 137.38800879 -184.5 146.0625 C-184.51861084 147.23377441 -184.53722168 148.40504883 -184.55639648 149.61181641 C-184.42815434 167.38891743 -176.88580348 183.2495114 -166 197 C-165.04867187 198.25490234 -165.04867187 198.25490234 -164.078125 199.53515625 C-152.47160073 213.30154124 -133.42111567 222.80606 -115.625 224.625 C-98.16839259 225.92950191 -82.81037697 222.50593654 -67 215 C-67 214.34 -67 213.68 -67 213 C-66.15695313 212.86271484 -66.15695313 212.86271484 -65.296875 212.72265625 C-57.7746823 210.35597998 -49.92093219 202.04261526 -45 196 C-43.78218331 193.36953633 -43.78218331 193.36953633 -43 191 C-42.34 191 -41.68 191 -41 191 C-39.72660518 188.48043257 -38.45623358 185.95941351 -37.1875 183.4375 C-36.83107422 182.73302734 -36.47464844 182.02855469 -36.10742188 181.30273438 C-26.85121831 162.87524655 -24.43036922 142.23144561 -30.77734375 122.2578125 C-32.71104068 117.10540599 -34.72303238 112.01119512 -37 107 C-37.66 107 -38.32 107 -39 107 C-39.09152344 106.43796875 -39.18304688 105.8759375 -39.27734375 105.296875 C-41.64402002 97.7746823 -49.95738474 89.92093219 -56 85 C-58.63046367 83.78218331 -58.63046367 83.78218331 -61 83 C-61 82.34 -61 81.68 -61 81 C-63.81509993 78.7226499 -63.81509993 78.7226499 -67 79 C-67 78.34 -67 77.68 -67 77 C-69.6421006 75.86550445 -72.28816505 74.74237641 -74.9375 73.625 C-76.04061523 73.14933594 -76.04061523 73.14933594 -77.16601562 72.6640625 C-95.35216607 65.0401741 -117.94472138 65.08248803 -136 73 Z " fill="#F95249" transform="translate(256,5)"/>
<path d="M0 0 C3 1 3 1 4.1328125 2.70703125 C4.46023437 3.40183594 4.78765625 4.09664062 5.125 4.8125 C5.45757813 5.49957031 5.79015625 6.18664062 6.1328125 6.89453125 C6.96581322 8.91699695 7.53024571 10.86693207 8 13 C8.66 13 9.32 13 10 13 C12.57549828 16.86324742 12.75196022 18.41304264 12 23 C9.65602407 26.04716871 7.04177789 28.64842472 4 31 C3.34 31 2.68 31 2 31 C1.67 31.99 1.34 32.98 1 34 C0.01 34.309375 -0.98 34.61875 -2 34.9375 C-2.99 35.288125 -3.98 35.63875 -5 36 C-5.15339844 36.61488281 -5.30679687 37.22976562 -5.46484375 37.86328125 C-6.16024952 40.63982837 -7.35341948 41.48273558 -9.5625 43.25 C-10.52349609 44.03117187 -10.52349609 44.03117187 -11.50390625 44.828125 C-12.24447266 45.40820312 -12.24447266 45.40820312 -13 46 C-12.49242185 50.24414848 -11.32370004 52.16641354 -8.2890625 55.13671875 C-7.53882813 55.87857422 -6.78859375 56.62042969 -6.015625 57.38476562 C-5.22671875 58.14466797 -4.4378125 58.90457031 -3.625 59.6875 C-2.84382813 60.45900391 -2.06265625 61.23050781 -1.2578125 62.02539062 C1.73517242 64.95943834 4.50495532 67.66997021 8 70 C8 70.66 8 71.32 8 72 C8.78375 72.226875 9.5675 72.45375 10.375 72.6875 C13.68172957 74.34086479 13.71773977 75.66612339 15 79 C17.04105639 79.88693303 17.04105639 79.88693303 19 80 C19 81.32 19 82.64 19 84 C22.11598788 85.84651134 24.38245897 86.38079379 28 86 C28.66 85.34 29.32 84.68 30 84 C30.99 84.33 31.98 84.66 33 85 C32.12432227 86.03817463 31.22347209 87.05515303 30.3125 88.0625 C29.81363281 88.63097656 29.31476562 89.19945312 28.80078125 89.78515625 C27 91 27 91 24.5859375 90.99609375 C21.16704177 89.67914751 19.6524109 87.79676956 17.3125 85 C14.55179038 81.50290207 14.55179038 81.50290207 11 79 C11 78.34 11 77.68 11 77 C10.34 77 9.68 77 9 77 C9 76.34 9 75.68 9 75 C8.34 75 7.68 75 7 75 C5.31267723 73.01739574 3.64633943 71.0167658 2 69 C1.34 68.67 0.68 68.34 0 68 C0 67.34 0 66.68 0 66 C-0.89102417 65.59467041 -0.89102417 65.59467041 -1.80004883 65.18115234 C-5.33771803 63.28178007 -7.87504785 60.45302497 -10.6875 57.625 C-11.28111328 57.0475 -11.87472656 56.47 -12.48632812 55.875 C-13.05158203 55.31039062 -13.61683594 54.74578125 -14.19921875 54.1640625 C-14.71315186 53.65311035 -15.22708496 53.1421582 -15.7565918 52.61572266 C-17.19891319 50.74152612 -17.67719288 49.33311014 -18 47 C-17.0234375 45.31640625 -17.0234375 45.31640625 -15.375 43.5625 C-14.73949219 42.88316406 -14.10398437 42.20382813 -13.44921875 41.50390625 C-12.64097656 40.67761719 -11.83273438 39.85132813 -11 39 C-10.47873535 38.45972168 -9.9574707 37.91944336 -9.42041016 37.36279297 C-7.68462151 35.56665487 -5.93852529 33.78128216 -4.1875 32 C-3.61241699 31.41162354 -3.03733398 30.82324707 -2.44482422 30.21704102 C-1.00185438 28.77172523 0.49510189 27.3807177 2 26 C2.66 26 3.32 26 4 26 C4.28875 25.4225 4.5775 24.845 4.875 24.25 C6 22 6 22 7.3125 20.33203125 C8.34528283 17.74949174 8.34528283 17.74949174 6.4453125 14.43359375 C5.68770511 13.09249575 4.91353199 11.76065158 4.125 10.4375 C0 3.33787129 0 3.33787129 0 0 Z " fill="#C95049" transform="translate(21,207)"/>
<path d="M0 0 C3.2488159 3.66458698 4.5142509 7.73845004 6 12.3125 C6.26127686 13.11139648 6.52255371 13.91029297 6.79174805 14.73339844 C10.58103774 26.63685199 12.53612827 38.5044552 13 51 C13.04125 51.98742187 13.0825 52.97484375 13.125 53.9921875 C13.42817471 68.5824705 12.42191605 84.02674528 8 98 C7.67 98 7.34 98 7 98 C6.97104024 94.87501937 6.95321517 91.7500731 6.9375 88.625 C6.92912109 87.73554688 6.92074219 86.84609375 6.91210938 85.9296875 C6.90888672 85.07890625 6.90566406 84.228125 6.90234375 83.3515625 C6.89710693 82.56604004 6.89187012 81.78051758 6.88647461 80.97119141 C7 79 7 79 8 77 C10.44935796 59.79401627 9.52334892 41.75891747 5.375 24.90625 C4.78393785 21.90168407 4.8701257 19.05204614 5 16 C4.34 16 3.68 16 3 16 C0.54970669 10.28264895 -0.33266291 6.20970773 0 0 Z " fill="#DD5C53" transform="translate(278,93)"/>
<path d="M0 0 C2.0818634 1.48059082 2.0818634 1.48059082 4.14770508 3.58007812 C4.92813675 4.36088745 5.70856842 5.14169678 6.51264954 5.94616699 C7.3399205 6.79924438 8.16719147 7.65232178 9.01953125 8.53125 C9.87810226 9.39689575 10.73667328 10.2625415 11.6212616 11.15441895 C14.36361216 13.92478086 17.08808223 16.71201168 19.8125 19.5 C21.66746884 21.38004255 23.5235751 23.25896357 25.38085938 25.13671875 C29.93385622 29.74487496 34.47228782 34.36700551 39 39 C36 39 36 39 34.34414673 37.67126465 C33.74411835 37.04949341 33.14408997 36.42772217 32.52587891 35.78710938 C31.84151764 35.08638306 31.15715637 34.38565674 30.45205688 33.66369629 C29.71764374 32.89811401 28.98323059 32.13253174 28.2265625 31.34375 C26.66432334 29.74844244 25.10181497 28.15339847 23.5390625 26.55859375 C21.07680656 24.02796914 18.61872024 21.49349703 16.16601562 18.95361328 C13.80113818 16.51038146 11.42116552 14.08267282 9.0390625 11.65625 C8.30869781 10.89066772 7.57833313 10.12508545 6.82583618 9.33630371 C6.13517059 8.63557739 5.444505 7.93485107 4.73291016 7.21289062 C4.13129059 6.59111938 3.52967102 5.96934814 2.90982056 5.32873535 C0.42906233 3.60277678 -1.03673272 3.60880109 -4 4 C-6.55447525 5.89667052 -6.55447525 5.89667052 -8.94140625 8.5234375 C-9.85470703 9.461875 -10.76800781 10.4003125 -11.70898438 11.3671875 C-12.66094406 12.36904368 -13.61210852 13.37165605 -14.5625 14.375 C-16.43188752 16.32721049 -18.31026408 18.26997102 -20.19140625 20.2109375 C-21.01842041 21.08024902 -21.84543457 21.94956055 -22.69750977 22.84521484 C-24.80210188 24.81479707 -26.29825472 26.05382636 -29 27 C-32.75 26.625 -32.75 26.625 -36 26 C-35.67 25.34 -35.34 24.68 -35 24 C-34.2575 24.2475 -33.515 24.495 -32.75 24.75 C-31.8425 24.8325 -30.935 24.915 -30 25 C-27.7914234 23.12491838 -27.7914234 23.12491838 -26 21 C-25.34 21 -24.68 21 -24 21 C-23.74710205 20.42475586 -23.4942041 19.84951172 -23.23364258 19.25683594 C-20.87813357 14.94764828 -17.12335045 11.71168392 -13.6875 8.25 C-12.92759766 7.45722656 -12.16769531 6.66445312 -11.38476562 5.84765625 C-10.64291016 5.09871094 -9.90105469 4.34976562 -9.13671875 3.578125 C-8.46342529 2.89137695 -7.79013184 2.20462891 -7.09643555 1.49707031 C-4.43790613 -0.40139276 -3.21712421 -0.38842625 0 0 Z " fill="#97413B" transform="translate(256,5)"/>
<path d="M0 0 C4 0 4 0 6.1875 1.8125 C8 4 8 4 9 7 C9.61875 7.12375 10.2375 7.2475 10.875 7.375 C13 8 13 8 14.75 10.3125 C16 13 16 13 16 17 C16.99 17.33 17.98 17.66 19 18 C20.28125 19.9609375 20.28125 19.9609375 21.5 22.375 C23.11496035 25.67472269 23.11496035 25.67472269 25.58203125 28.30859375 C27.86992584 31.03768013 27.86256428 34.26110884 28.1875 37.6875 C28.26790527 38.45755371 28.34831055 39.22760742 28.43115234 40.02099609 C29.41140091 50.6490642 29.176447 61.33988652 29 72 C28.67 72 28.34 72 28 72 C27.9906543 71.38181396 27.98130859 70.76362793 27.97167969 70.12670898 C27.68034952 54.73904934 26.79193252 40.74091223 19.734375 26.734375 C19 25 19 25 19 22 C18.34 22 17.68 22 17 22 C16.45601562 20.97390625 15.91203125 19.9478125 15.3515625 18.890625 C13.14044243 15.0216519 10.45532105 11.94562718 7.375 8.75 C4.70047902 5.93471476 2.16370016 3.24555024 0 0 Z " fill="#A4453D" transform="translate(200,90)"/>
<path d="M0 0 C0.33 0 0.66 0 1 0 C1.08040527 0.71430176 1.16081055 1.42860352 1.24365234 2.16455078 C3.8432725 26.61473625 3.8432725 26.61473625 8.4140625 50.74609375 C9.04081705 54.22667068 9.09815438 57.47090392 9 61 C9.66 61 10.32 61 11 61 C12.35439668 63.70879335 12.06501451 66.00933268 12 69 C9.22848581 66.22848581 8.33191972 62.93998108 7.0625 59.3125 C6.79671143 58.55372559 6.53092285 57.79495117 6.25708008 57.01318359 C1.18302846 42.06643724 -0.18751686 27.01654047 -0.0625 11.3125 C-0.05798828 10.21744141 -0.05347656 9.12238281 -0.04882812 7.99414062 C-0.03719156 5.32936691 -0.02084564 2.66471483 0 0 Z " fill="#B54D46" transform="translate(9,138)"/>
<path d="M0 0 C1.14726562 0.00902344 2.29453125 0.01804687 3.4765625 0.02734375 C6.27626748 0.05067462 9.07551695 0.08340768 11.875 0.125 C11.875 0.785 11.875 1.445 11.875 2.125 C12.65875 2.228125 13.4425 2.33125 14.25 2.4375 C18.9073976 3.32079954 23.35692149 4.70528758 27.875 6.125 C27.875 6.785 27.875 7.445 27.875 8.125 C30.515 8.455 33.155 8.785 35.875 9.125 C35.875 10.115 35.875 11.105 35.875 12.125 C31.6185146 10.7640829 27.4599591 9.38614245 23.375 7.5625 C14.89111928 4.07804899 6.66092141 3.78718441 -2.4375 3.8125 C-3.58412109 3.79638672 -4.73074219 3.78027344 -5.91210938 3.76367188 C-13.72521455 3.7592502 -20.64658885 4.87406723 -28.125 7.125 C-28.125 6.135 -28.125 5.145 -28.125 4.125 C-19.16574538 -0.05598549 -9.70100233 -0.14664306 0 0 Z " fill="#DE5750" transform="translate(152.125,69.875)"/>
<path d="M0 0 C-0.66 0 -1.32 0 -2 0 C-2 0.66 -2 1.32 -2 2 C-9.89941875 5.9744795 -16.7455868 6.56002097 -25.5 6.375 C-27.23830078 6.37306641 -27.23830078 6.37306641 -29.01171875 6.37109375 C-35.89308099 6.3011138 -42.3169047 5.65553301 -49 4 C-49.33 3.01 -49.66 2.02 -50 1 C-48.80503906 1.144375 -47.61007813 1.28875 -46.37890625 1.4375 C-44.77346911 1.62527043 -43.16799852 1.8127551 -41.5625 2 C-40.77939453 2.09539062 -39.99628906 2.19078125 -39.18945312 2.2890625 C-31.4413018 3.1818536 -24.03929973 3.36052763 -16.3125 2.125 C-15.25675781 1.96257812 -14.20101562 1.80015625 -13.11328125 1.6328125 C-9.9423119 1.05535179 -9.9423119 1.05535179 -6.75390625 -0.09375 C-3.90570458 -1.03103055 -2.74687363 -1.05648986 0 0 Z " fill="#E05D56" transform="translate(178,226)"/>
<path d="M0 0 C0.33 0 0.66 0 1 0 C1.0093457 0.74983154 1.01869141 1.49966309 1.02832031 2.2722168 C1.28618451 18.72117192 1.82524681 32.34342308 9.36328125 47.1953125 C10 49 10 49 9 52 C5.78957203 48.3671473 3.6592257 45.59743788 2 41 C1.71898438 40.23945313 1.43796875 39.47890625 1.1484375 38.6953125 C-2.43587749 26.78380106 -2.55322979 12.14843208 0 0 Z " fill="#933D39" transform="translate(71,138)"/>
<path d="M0 0 C0.33 0.66 0.66 1.32 1 2 C-4 7 -4 7 -5.875 8.5 C-7.21196122 9.97240482 -7.21196122 9.97240482 -7.01171875 12.13671875 C-5.45463269 16.54345266 -2.27932585 19.14054213 1.0625 22.3125 C1.72572266 22.95767578 2.38894531 23.60285156 3.07226562 24.26757812 C4.70617671 25.85447018 6.34868147 27.43126328 8 29 C6.22729492 29.69018555 6.22729492 29.69018555 4 30 C2.18481445 28.80004883 2.18481445 28.80004883 0.36328125 26.95703125 C-0.29607422 26.29509766 -0.95542969 25.63316406 -1.63476562 24.95117188 C-2.65086914 23.8925293 -2.65086914 23.8925293 -3.6875 22.8125 C-4.37650391 22.12607422 -5.06550781 21.43964844 -5.77539062 20.73242188 C-11.55664398 14.83747623 -11.55664398 14.83747623 -12 11 C-9.10452785 6.31509009 -4.95932922 2.40452326 0 0 Z " fill="#A74740" transform="translate(15,243)"/>
<path d="M0 0 C0.7734375 0.3403125 0.7734375 0.3403125 1.5625 0.6875 C-1.02169845 3.83387496 -3.82806862 4.70468109 -7.625 6 C-12.77216484 7.87948638 -16.47971318 10.00335397 -20.6640625 13.47265625 C-23.38570935 15.33704429 -26.21343632 15.37749388 -29.4375 15.6875 C-31.81778291 17.11425173 -31.81778291 17.11425173 -33.4375 18.6875 C-34.0975 18.3575 -34.7575 18.0275 -35.4375 17.6875 C-27.35912188 11.47336298 -18.6413406 6.96361542 -9.4375 2.6875 C-8.46744019 2.23636841 -8.46744019 2.23636841 -7.4777832 1.77612305 C-2.74022128 -0.35131042 -2.74022128 -0.35131042 0 0 Z " fill="#C44E49" transform="translate(103.4375,18.3125)"/>
<path d="M0 0 C1.36585366 5.12195122 1.36585366 5.12195122 0.0625 8.25 C-1.06483159 11.1677994 -1.56879864 13.90972359 -2 17 C-2.66 17 -3.32 17 -4 17 C-4.12117188 18.21558594 -4.24234375 19.43117188 -4.3671875 20.68359375 C-4.53597078 22.26828117 -4.70526816 23.8529139 -4.875 25.4375 C-4.95363281 26.23994141 -5.03226563 27.04238281 -5.11328125 27.86914062 C-5.33845763 29.92170994 -5.66222587 31.96293009 -6 34 C-6.99 34.495 -6.99 34.495 -8 35 C-8.68931344 37.34907875 -8.68931344 37.34907875 -9.125 40.0625 C-9.29257813 40.98160156 -9.46015625 41.90070313 -9.6328125 42.84765625 C-9.75398437 43.55792969 -9.87515625 44.26820313 -10 45 C-10.33 45 -10.66 45 -11 45 C-11.23146314 38.26033808 -10.49502686 32.40795422 -8.875 25.875 C-8.65561768 24.96790283 -8.43623535 24.06080566 -8.21020508 23.1262207 C-6.18385978 15.08812468 -3.38113605 7.56398477 0 0 Z " fill="#A4443C" transform="translate(21,92)"/>
<path d="M0 0 C-8.17223131 8.498637 -16.28791449 16.2762485 -26 23 C-26.66 22.67 -27.32 22.34 -28 22 C-27.38125 21.5875 -26.7625 21.175 -26.125 20.75 C-23.93231719 18.94426121 -23.07211583 17.5909466 -22 15 C-21.34 15 -20.68 15 -20 15 C-19.731875 14.236875 -19.46375 13.47375 -19.1875 12.6875 C-17.39145907 8.6227758 -17.39145907 8.6227758 -15 7 C-11.8125 6.8125 -11.8125 6.8125 -9 7 C-8.87625 6.401875 -8.7525 5.80375 -8.625 5.1875 C-8 3 -8 3 -6 0 C-3.39677846 -0.97620808 -2.52782417 -1.26391209 0 0 Z " fill="#DF564A" transform="translate(255,246)"/>
<path d="M0 0 C0.85648636 -0.00807175 1.71297272 -0.01614349 2.59541321 -0.02445984 C4.41002411 -0.03825435 6.22466045 -0.0489971 8.03930664 -0.05688477 C9.85709485 -0.06829516 11.67485255 -0.08856858 13.49243164 -0.1184082 C28.61629006 -0.36597754 42.77767188 1.19009171 57.11328125 6.23828125 C53.84251427 7.32853691 52.70875041 7.14215914 49.42578125 6.42578125 C48.53761719 6.235 47.64945313 6.04421875 46.734375 5.84765625 C44.47541164 5.32247252 42.23189835 4.76223166 39.98828125 4.17578125 C32.59289992 2.38657609 25.49373392 2.09718996 17.92578125 2.140625 C16.51111572 2.14274742 16.51111572 2.14274742 15.06787109 2.14491272 C12.08297428 2.15046885 9.09815504 2.16301302 6.11328125 2.17578125 C4.07812609 2.18080193 2.04296974 2.18536384 0.0078125 2.18945312 C-4.95706072 2.20042388 -9.92187662 2.21765786 -14.88671875 2.23828125 C-14.88671875 1.90828125 -14.88671875 1.57828125 -14.88671875 1.23828125 C-9.88714073 0.24615486 -5.07483206 0.04649587 0 0 Z " fill="#823A33" transform="translate(137.88671875,10.76171875)"/>
<path d="M0 0 C1.34699006 0.01509096 2.69399668 0.02877148 4.04101562 0.04101562 C7.29861152 0.07604354 10.55533173 0.12516338 13.8125 0.1875 C13.8125 0.5175 13.8125 0.8475 13.8125 1.1875 C9.11758314 1.7632628 4.4219551 2.33268996 -0.27441406 2.89648438 C-1.86902134 3.08879233 -3.46342793 3.28277257 -5.05761719 3.47851562 C-7.36080877 3.76100971 -9.66467629 4.03730472 -11.96875 4.3125 C-12.67116821 4.39999512 -13.37358643 4.48749023 -14.09729004 4.57763672 C-18.82497226 5.13432879 -23.42678017 5.26217796 -28.1875 5.1875 C-21.41484029 -1.58515971 -8.77202366 -0.17079826 0 0 Z " fill="#EA5F54" transform="translate(133.1875,12.8125)"/>
<path d="M0 0 C1.7074998 1.28062485 3.37373596 2.61767557 5 4 C5 4.66 5 5.32 5 6 C5.59554687 6.27328125 6.19109375 6.5465625 6.8046875 6.828125 C8.92647198 7.96075016 10.37746836 9.11662872 12.125 10.75 C17.70514406 15.6566784 24.0553166 19.38029736 31 22 C26.54038435 23.56495687 23.77756264 22.0921697 19.59765625 20.30078125 C13.10013868 17.04713711 8.38417371 12.72378235 4 7 C3.236875 6.0925 2.47375 5.185 1.6875 4.25 C0 2 0 2 0 0 Z " fill="#B95149" transform="translate(89,201)"/>
<path d="M0 0 C0.33 0 0.66 0 1 0 C2.69081208 20.13877963 3.17041803 41.50147902 -3 61 C-3.33 61 -3.66 61 -4 61 C-4.23545304 55.23140044 -3.81400484 50.54872068 -2 45 C-0.78741514 40.28451257 -0.77883419 35.60078798 -0.68359375 30.76171875 C-0.66281265 29.88095169 -0.64203156 29.00018463 -0.62062073 28.09272766 C-0.55546063 25.29106121 -0.49639679 22.48930443 -0.4375 19.6875 C-0.39428285 17.78319394 -0.35066756 15.87889688 -0.30664062 13.97460938 C-0.19981377 9.31649782 -0.0984526 4.65829578 0 0 Z " fill="#7A352F" transform="translate(289,130)"/>
<path d="M0 0 C0.33 0.66 0.66 1.32 1 2 C-0.40039362 4.58906466 -1.85042339 7.02833255 -3.4375 9.5 C-4.1178833 10.57507813 -4.1178833 10.57507813 -4.81201172 11.671875 C-8.51462903 17.43639786 -12.52786501 22.80332918 -17 28 C-17.33 26.68 -17.66 25.36 -18 24 C-16.68 23.34 -15.36 22.68 -14 22 C-14.061875 21.21625 -14.12375 20.4325 -14.1875 19.625 C-14.125625 18.75875 -14.06375 17.8925 -14 17 C-13.01 16.34 -12.02 15.68 -11 15 C-9.98234073 13.00892752 -8.98422146 11.00781177 -8 9 C-5.9375 6.125 -5.9375 6.125 -4 4 C-3.34 4 -2.68 4 -2 4 C-2 3.01 -2 2.02 -2 1 C-1.34 0.67 -0.68 0.34 0 0 Z " fill="#9C413C" transform="translate(274,216)"/>
<path d="M0 0 C2.75 -0.25 2.75 -0.25 6 0 C8.375 2 8.375 2 10 4 C9.01 4.495 9.01 4.495 8 5 C6.02 4.34 4.04 3.68 2 3 C-3.28 8.28 -8.56 13.56 -14 19 C-14.33 18.01 -14.66 17.02 -15 16 C-14.34 16 -13.68 16 -13 16 C-13 14.68 -13 13.36 -13 12 C-12.01 12 -11.02 12 -10 12 C-10.33 10.68 -10.66 9.36 -11 8 C-7.535 7.505 -7.535 7.505 -4 7 C-3.67 5.35 -3.34 3.7 -3 2 C-2.01 2 -1.02 2 0 2 C0 1.34 0 0.68 0 0 Z " fill="#B14A42" transform="translate(72,269)"/>
<path d="M0 0 C3.35135629 3.73151014 4.55844216 8.00607187 6.0625 12.6875 C6.31837891 13.45255859 6.57425781 14.21761719 6.83789062 15.00585938 C11.44707225 29.07038016 11.44707225 29.07038016 11 36 C9.13617044 32.41571238 7.58244432 28.71530405 6 25 C5.67 24.34 5.34 23.68 5 23 C4.95977609 20.6670134 4.95679753 18.33293334 5 16 C4.34 16 3.68 16 3 16 C0.54970669 10.28264895 -0.33266291 6.20970773 0 0 Z " fill="#913F36" transform="translate(278,93)"/>
<path d="M0 0 C-2.43800551 2.03167126 -4.64906029 3.29606259 -7.5625 4.625 C-13.40149542 7.42860083 -18.1223871 11.80381832 -23 16 C-23.33 14.68 -23.66 13.36 -24 12 C-23.01 11.67 -22.02 11.34 -21 11 C-21 10.01 -21 9.02 -21 8 C-20.01 7.67 -19.02 7.34 -18 7 C-17.46375 6.38125 -16.9275 5.7625 -16.375 5.125 C-11.99176072 1.20315433 -5.86981525 -0.56804664 0 0 Z " fill="#AB4640" transform="translate(120,78)"/>
<path d="M0 0 C0.83273438 -0.00386719 1.66546875 -0.00773437 2.5234375 -0.01171875 C6.60405986 -0.00522094 10.39486352 0.10153633 14.375 1.125 C14.375 1.455 14.375 1.785 14.375 2.125 C13.71081055 2.13958252 13.04662109 2.15416504 12.36230469 2.16918945 C-4.89288498 2.36704871 -4.89288498 2.36704871 -21.625 6.125 C-21.625 5.135 -21.625 4.145 -21.625 3.125 C-14.66293184 -0.03957644 -7.50285366 -0.03516963 0 0 Z " fill="#AA4641" transform="translate(145.625,70.875)"/>
<path d="M0 0 C0.66 0.33 1.32 0.66 2 1 C1.3125 2.875 1.3125 2.875 0 5 C-0.763125 5.28875 -1.52625 5.5775 -2.3125 5.875 C-5.27676632 6.87197321 -5.27676632 6.87197321 -7.4375 9.9375 C-10.12058509 13.14411389 -12.118165 14.533529 -16 16 C-16.66 15.67 -17.32 15.34 -18 15 C-16.1342867 13.05277495 -14.25832281 11.11757196 -12.375 9.1875 C-11.85292969 8.64029297 -11.33085938 8.09308594 -10.79296875 7.52929688 C-7.48978892 4.16494705 -4.48260284 1.72753605 0 0 Z " fill="#EA5951" transform="translate(67,39)"/>
<path d="M0 0 C1.670625 0.2165625 1.670625 0.2165625 3.375 0.4375 C13.64364632 1.707218 23.65797023 2.25361926 34 2 C34 2.33 34 2.66 34 3 C31.16776345 3.36613314 28.33489817 3.71813541 25.5 4.0625 C24.70851562 4.16626953 23.91703125 4.27003906 23.1015625 4.37695312 C17.81278193 5.0055377 13.25888659 4.85400722 8 4 C7.236875 3.89558594 6.47375 3.79117188 5.6875 3.68359375 C3.34375 3.34179688 3.34375 3.34179688 1 3 C0.67 2.01 0.34 1.02 0 0 Z " fill="#A2443F" transform="translate(128,227)"/>
<path d="M0 0 C2.10827055 3.16240582 2.33817465 4.50657469 2.625 8.1875 C2.69976562 9.08855469 2.77453125 9.98960937 2.8515625 10.91796875 C2.90054687 11.60503906 2.94953125 12.29210937 3 13 C3.66 13 4.32 13 5 13 C6.99785435 17.1205746 7.17835515 20.45194365 7 25 C7.66 25 8.32 25 9 25 C10.35439668 27.70879335 10.06501451 30.00933268 10 33 C7.16390813 30.16390813 6.28662523 26.71581494 5 23 C4.5985376 21.85011597 4.5985376 21.85011597 4.18896484 20.67700195 C1.85080655 13.83366468 0 7.27111806 0 0 Z " fill="#933C38" transform="translate(11,174)"/>
<path d="M0 0 C2.71308856 2.71308856 2.25784185 4.1772465 2.265625 7.96875 C2.26820313 9.18046875 2.27078125 10.3921875 2.2734375 11.640625 C2.26570312 12.91421875 2.25796875 14.1878125 2.25 15.5 C2.25773438 16.74265625 2.26546875 17.9853125 2.2734375 19.265625 C2.25834988 26.41715498 1.77307243 33.06118806 0 40 C-0.66 40 -1.32 40 -2 40 C-1.85892253 38.54119891 -1.71197585 37.08296449 -1.5625 35.625 C-1.48128906 34.81289062 -1.40007812 34.00078125 -1.31640625 33.1640625 C-1 31 -1 31 0 29 C0.08559118 26.82175039 0.10713412 24.64084745 0.09765625 22.4609375 C0.09443359 21.15898437 0.09121094 19.85703125 0.08789062 18.515625 C0.07953466 17.13541601 0.07106971 15.75520768 0.0625 14.375 C0.05748501 12.98698074 0.0529221 11.59895978 0.04882812 10.2109375 C0.03700976 6.80724868 0.02053434 3.40364561 0 0 Z " fill="#C1564F" transform="translate(228,133)"/>
<path d="M0 0 C0.66 0 1.32 0 2 0 C2.75 2.75 2.75 2.75 3 6 C1.25 8.0625 1.25 8.0625 -1 10 C-1.804375 11.36125 -1.804375 11.36125 -2.625 12.75 C-3.07875 13.4925 -3.5325 14.235 -4 15 C-4.66 15 -5.32 15 -6 15 C-6 15.66 -6 16.32 -6 17 C-7.65071396 18.02611949 -9.31970006 19.02308143 -11 20 C-12.75149165 21.58245275 -12.75149165 21.58245275 -14 23 C-14.66 22.67 -15.32 22.34 -16 22 C-14.21427748 20.16052663 -12.42197551 18.32842259 -10.625 16.5 C-10.11710937 15.97535156 -9.60921875 15.45070312 -9.0859375 14.91015625 C-7.76167396 13.56846819 -6.38394135 12.28004185 -5 11 C-4.34 11 -3.68 11 -3 11 C-2.71125 10.4225 -2.4225 9.845 -2.125 9.25 C-1.39553577 7.79107155 -0.62637667 6.35107527 0.1875 4.9375 C1.31455354 2.84615294 1.31455354 2.84615294 0 0 Z " fill="#8A3733" transform="translate(28,222)"/>
<path d="M0 0 C0.66 0 1.32 0 2 0 C3.03275341 2.26607052 4.05133551 4.53681939 5.0625 6.8125 C5.50432617 7.77639648 5.50432617 7.77639648 5.95507812 8.75976562 C8.11328125 13.66015625 8.11328125 13.66015625 7 17 C2.08718476 11.4407617 -0.35732973 7.68258925 0 0 Z " fill="#A8443E" transform="translate(73,173)"/>
<path d="M0 0 C0.66 0 1.32 0 2 0 C0.82860087 2.34279827 -0.35242565 4.67665724 -1.5625 7 C-3.04444865 9.78304504 -3.04444865 9.78304504 -3.4375 12.125 C-4.23530123 14.78433744 -6.05465919 16.05465919 -8 18 C-9.25436187 20.63222962 -9.25436187 20.63222962 -10 23 C-10.66 23 -11.32 23 -12 23 C-10.57738541 18.16162849 -8.53943269 14.12309499 -6 9.8125 C-5.46632813 8.88920898 -5.46632813 8.88920898 -4.921875 7.94726562 C-3.35117873 5.2425032 -1.73546969 2.60320454 0 0 Z " fill="#75332F" transform="translate(34,69)"/>
<path d="M0 0 C-4.62 4.62 -9.24 9.24 -14 14 C-14.66 13.67 -15.32 13.34 -16 13 C-14.48387097 9.20967742 -14.48387097 9.20967742 -12.125 8.1875 C-9.66427223 6.81238742 -9.26736763 5.89240108 -8 3.4375 C-6 0 -6 0 -3.875 -1 C-2 -1 -2 -1 0 0 Z " fill="#A0453D" transform="translate(255,246)"/>
<path d="M0 0 C1.7074998 1.28062485 3.37373596 2.61767557 5 4 C5 4.66 5 5.32 5 6 C5.59039062 6.27070313 6.18078125 6.54140625 6.7890625 6.8203125 C8.96979885 7.9838856 10.54975743 9.22114171 12.375 10.875 C15.43230829 13.56912912 18.56086309 15.81908391 22 18 C21.34 18.33 20.68 18.66 20 19 C19.33613281 18.52949219 18.67226562 18.05898437 17.98828125 17.57421875 C17.10527344 16.95160156 16.22226563 16.32898438 15.3125 15.6875 C14.44238281 15.07261719 13.57226562 14.45773438 12.67578125 13.82421875 C10.04103313 11.97718926 10.04103313 11.97718926 7.30859375 10.45703125 C3.36832173 7.9701929 1.44712096 4.34136289 0 0 Z " fill="#6F332C" transform="translate(89,201)"/>
<path d="M0 0 C0.66 0.33 1.32 0.66 2 1 C0.1875 3.5 0.1875 3.5 -2 6 C-2.99 6 -3.98 6 -5 6 C-5 6.66 -5 7.32 -5 8 C-8.3 8.33 -11.6 8.66 -15 9 C-8.33333333 4 -8.33333333 4 -4 4 C-4 3.34 -4 2.68 -4 2 C-2.125 0.9375 -2.125 0.9375 0 0 Z " fill="#95413B" transform="translate(193,216)"/>
<path d="M0 0 C0.33 0.99 0.66 1.98 1 3 C0.07976051 4.80639604 -0.84745561 6.60956043 -1.80859375 8.39453125 C-4.22114311 13.67049986 -5.52248993 19.40432357 -7 25 C-9.14536665 17.43389776 -5.98315689 10.89594871 -3 4 C-2.34 4 -1.68 4 -1 4 C-0.67 2.68 -0.34 1.36 0 0 Z " fill="#91443F" transform="translate(80,112)"/>
<path d="M0 0 C2.35716404 2.15454249 3.78966144 4.19719874 5.1875 7.0625 C5.53167969 7.75472656 5.87585938 8.44695312 6.23046875 9.16015625 C7 11 7 11 7 13 C5.35 13 3.7 13 2 13 C1.66127487 11.58461283 1.32925376 10.16762037 1 8.75 C0.814375 7.96109375 0.62875 7.1721875 0.4375 6.359375 C0 4 0 4 0 0 Z " fill="#B24B41" transform="translate(271,80)"/>
<path d="M0 0 C0.33 0.66 0.66 1.32 1 2 C-1.1775426 6.59372001 -4.22179869 10.6126471 -8 14 C-8.66 14.66 -9.32 15.32 -10 16 C-9.59862455 10.38074374 -7.82025541 7.91343237 -4 4 C-3.34 4 -2.68 4 -2 4 C-2 3.01 -2 2.02 -2 1 C-1.34 0.67 -0.68 0.34 0 0 Z " fill="#B04E46" transform="translate(274,216)"/>
<path d="M0 0 C4.2618617 5.23046663 5.26464369 9.25158598 5 16 C4.34 16 3.68 16 3 16 C0.54970669 10.28264895 -0.33266291 6.20970773 0 0 Z " fill="#CD564E" transform="translate(278,93)"/>
<path d="M0 0 C3 1 3 1 4.09765625 2.63671875 C6.00792105 6.69699818 7.7067611 10.68920368 9 15 C5.07994061 13.69331354 4.71967958 12.21332305 2.8125 8.625 C2.01779297 7.15933594 2.01779297 7.15933594 1.20703125 5.6640625 C0 3 0 3 0 0 Z " fill="#B44B45" transform="translate(21,207)"/>
<path d="M0 0 C0.33 0 0.66 0 1 0 C1.2137731 7.68395543 1.01670288 14.56340812 -1 22 C-1.33 22 -1.66 22 -2 22 C-2.26442904 14.40501039 -1.60881575 7.42640842 0 0 Z " fill="#DD5E55" transform="translate(12,126)"/>
<path d="M0 0 C0 0.66 0 1.32 0 2 C0.66 2.33 1.32 2.66 2 3 C-1 5 -1 5 -4.4375 5.4375 C-7.98077787 5.99696493 -9.41486238 6.62167339 -12 9 C-12.66 8.67 -13.32 8.34 -14 8 C-12.37615858 6.85252535 -10.75088944 5.7070709 -9.125 4.5625 C-8.22007813 3.92441406 -7.31515625 3.28632813 -6.3828125 2.62890625 C-2.53717026 0 -2.53717026 0 0 0 Z " fill="#A8403B" transform="translate(82,28)"/>
<path d="M0 0 C9.41002278 -0.3690205 9.41002278 -0.3690205 14 2 C14 2.66 14 3.32 14 4 C16.64 4.33 19.28 4.66 22 5 C22 5.99 22 6.98 22 8 C17.69178945 6.62254493 13.43321297 5.25057115 9.3125 3.375 C6.1506675 2.06254122 3.38473046 1.41277201 0 1 C0 0.67 0 0.34 0 0 Z " fill="#A1423C" transform="translate(166,74)"/>
<path d="M0 0 C2.475 0.99 2.475 0.99 5 2 C5.4375 4.6875 5.4375 4.6875 5 8 C2.88875077 10.04775301 0.54140493 11.53480226 -2 13 C-1.41904307 10.55469946 -0.74555328 8.30733948 0.125 5.9375 C1.31200169 2.97951334 1.31200169 2.97951334 0 0 Z " fill="#B65147" transform="translate(291,43)"/>
<path d="M0 0 C0.556875 0.33 1.11375 0.66 1.6875 1 C4.35263324 2.15249005 6.12393149 2.30274405 9 2 C9.66 1.34 10.32 0.68 11 0 C11.99 0.33 12.98 0.66 14 1 C13.07213211 2.00894372 12.13231567 3.00690907 11.1875 4 C10.40439453 4.8353125 10.40439453 4.8353125 9.60546875 5.6875 C8 7 8 7 5 7 C3.61328125 5.46875 3.61328125 5.46875 2.3125 3.5 C1.87550781 2.8503125 1.43851563 2.200625 0.98828125 1.53125 C0.49908203 0.77328125 0.49908203 0.77328125 0 0 Z " fill="#B6534A" transform="translate(40,291)"/>
<path d="M0 0 C0.66 0.33 1.32 0.66 2 1 C0.73147606 2.60599349 -0.539911 4.20972575 -1.8125 5.8125 C-2.87404297 7.15248047 -2.87404297 7.15248047 -3.95703125 8.51953125 C-5.56411377 10.47076911 -7.17040423 12.26274976 -9 14 C-8.39169139 7.55192878 -8.39169139 7.55192878 -6.625 5.0625 C-5 4 -5 4 -2 4 C-1.34 2.68 -0.68 1.36 0 0 Z " fill="#A64841" transform="translate(90,98)"/>
<path d="M0 0 C0.66 0.33 1.32 0.66 2 1 C0.22172275 4.13315515 -1.31441851 5.74746926 -4.71484375 7 C-7.46598225 7.73646951 -10.21414603 8.40920683 -13 9 C-9.23925754 4.78340997 -6.15093956 2.9811306 -1 1 C-0.67 0.67 -0.34 0.34 0 0 Z " fill="#C55148" transform="translate(74,33)"/>
<path d="M0 0 C5.53904156 -0.19435234 9.65347799 0.37694868 15 2 C17.66387483 2.42753547 20.31518306 2.71738769 23 3 C23 3.33 23 3.66 23 4 C15.27177954 4.25338428 6.61357591 4.40905061 0 0 Z " fill="#C9534A" transform="translate(101,283)"/>
<path d="M0 0 C1.32 0 2.64 0 4 0 C3.91433603 2.912575 3.42089045 4.56798024 1.375 6.66796875 C-0.38391375 8.16091772 -2.16313019 9.60436262 -4 11 C-4 10.01 -4 9.02 -4 8 C-3.34 8 -2.68 8 -2 8 C-2 6.68 -2 5.36 -2 4 C-1.01 4 -0.02 4 1 4 C0.67 2.68 0.34 1.36 0 0 Z " fill="#B44E47" transform="translate(61,277)"/>
<path d="M0 0 C0.66 0 1.32 0 2 0 C-0.89066059 10.55808656 -0.89066059 10.55808656 -4 15 C-5.59494188 11.81011624 -4.74137105 9.42171253 -4 6 C-2.0625 2.5625 -2.0625 2.5625 0 0 Z " fill="#AC4A40" transform="translate(280,200)"/>
<path d="M0 0 C-5.15229344 4.19816502 -10.65323049 5.4939869 -17 7 C-16 4 -16 4 -13.671875 2.83203125 C-12.70765625 2.49558594 -11.7434375 2.15914063 -10.75 1.8125 C-9.79609375 1.46832031 -8.8421875 1.12414062 -7.859375 0.76953125 C-5.08905165 0.02396609 -2.85063531 -0.15085479 0 0 Z " fill="#BC4C44" transform="translate(120,78)"/>
<path d="M0 0 C3.7602985 0.58107632 6.53035032 1.65199496 9.8125 3.5625 C10.60269531 4.01753906 11.39289063 4.47257812 12.20703125 4.94140625 C12.79871094 5.29074219 13.39039063 5.64007813 14 6 C13.01 6.495 13.01 6.495 12 7 C11.4225 6.690625 10.845 6.38125 10.25 6.0625 C7.39367918 4.71368184 5.12570882 4.93204981 2 5 C1.34 4.67 0.68 4.34 0 4 C0 2.68 0 1.36 0 0 Z " fill="#A04036" transform="translate(205,22)"/>
<path d="M0 0 C0.33 0 0.66 0 1 0 C1.05441656 1.89551022 1.09298035 3.7914792 1.125 5.6875 C1.14820313 6.74324219 1.17140625 7.79898438 1.1953125 8.88671875 C0.99858729 12.02251859 0.33057654 14.17645373 -1 17 C-1.33 17 -1.66 17 -2 17 C-1.85978195 14.35375716 -1.71310224 11.70815422 -1.5625 9.0625 C-1.52318359 8.30775391 -1.48386719 7.55300781 -1.44335938 6.77539062 C-1.11328125 1.11328125 -1.11328125 1.11328125 0 0 Z " fill="#BB4E48" transform="translate(284,183)"/>
<path d="M0 0 C-2.31 0.33 -4.62 0.66 -7 1 C-7 1.66 -7 2.32 -7 3 C-10.21451269 4.60725635 -13.43612536 4.05748185 -17 4 C-14.59327602 1.59327602 -12.88621451 1.20867825 -9.625 0.3125 C-8.66851562 0.04050781 -7.71203125 -0.23148438 -6.7265625 -0.51171875 C-4.02935339 -0.9947433 -2.55027856 -0.9004538 0 0 Z " fill="#863C32" transform="translate(122,14)"/>
<path d="M0 0 C0.90105469 0.00902344 1.80210937 0.01804687 2.73046875 0.02734375 C3.41753906 0.03894531 4.10460937 0.05054688 4.8125 0.0625 C2.18359503 1.45323768 -0.30872047 2.50219204 -3.1875 3.25 C-3.8475 3.42917969 -4.5075 3.60835938 -5.1875 3.79296875 C-7.45290976 4.09826811 -9.022592 3.74386613 -11.1875 3.0625 C-10.1975 3.0625 -9.2075 3.0625 -8.1875 3.0625 C-8.1875 2.4025 -8.1875 1.7425 -8.1875 1.0625 C-5.17259443 0.05753148 -3.14568308 -0.04085303 0 0 Z " fill="#A24641" transform="translate(188.1875,284.9375)"/>
<path d="M0 0 C0 3.80345877 -1.13786331 4.77701015 -3.5 7.6875 C-4.47453125 8.89986328 -4.47453125 8.89986328 -5.46875 10.13671875 C-5.9740625 10.75160156 -6.479375 11.36648437 -7 12 C-7.60546875 10.16015625 -7.60546875 10.16015625 -8 8 C-5.78514551 4.63670244 -3.32150867 2.25388088 0 0 Z " fill="#BF544A" transform="translate(44,59)"/>
<path d="M0 0 C0 0.66 0 1.32 0 2 C-4.95 2.33 -9.9 2.66 -15 3 C-15 2.34 -15 1.68 -15 1 C-9.4584498 -0.96263236 -5.79141983 -1.01603857 0 0 Z " fill="#D4554E" transform="translate(130,14)"/>
<path d="M0 0 C8.19256018 0.19256018 8.19256018 0.19256018 11.5625 3.5625 C12.036875 4.366875 12.51125 5.17125 13 6 C3.40546697 3.10933941 3.40546697 3.10933941 0 0 Z " fill="#B14A45" transform="translate(88,277)"/>
<path d="M0 0 C0.66 0.33 1.32 0.66 2 1 C2 1.66 2 2.32 2 3 C2.66 3.33 3.32 3.66 4 4 C3.34 4.66 2.68 5.32 2 6 C1.3574765 8.06874034 1.3574765 8.06874034 1 10 C0.34 10 -0.32 10 -1 10 C-1.9765625 3.9453125 -1.9765625 3.9453125 -2 2 C-1.34 1.34 -0.68 0.68 0 0 Z " fill="#E65148" transform="translate(95,85)"/>
<path d="M0 0 C0 0.66 0 1.32 0 2 C-3.14930893 3.04976964 -5.38814456 3.10131595 -8.6875 3.0625 C-9.68136719 3.05347656 -10.67523438 3.04445313 -11.69921875 3.03515625 C-12.83810547 3.01775391 -12.83810547 3.01775391 -14 3 C-14 2.67 -14 2.34 -14 2 C-9.126739 0.4087311 -5.19209404 -0.21192221 0 0 Z " fill="#E15953" transform="translate(180,286)"/>
<path d="M0 0 C0.66 0 1.32 0 2 0 C2 0.66 2 1.32 2 2 C2.99 2.33 3.98 2.66 5 3 C7.29013653 6.4352048 7.17842973 7.985331 7 12 C6.34 11.34 5.68 10.68 5 10 C5 9.01 5 8.02 5 7 C4.34 7 3.68 7 3 7 C2.01 4.69 1.02 2.38 0 0 Z " fill="#9C413A" transform="translate(214,105)"/>
<path d="M0 0 C2.9297008 2.82506863 5.50174717 5.78796065 8 9 C7.67 9.66 7.34 10.32 7 11 C4.06785691 8.97783235 1.85660372 7.06339613 0 4 C0 2.68 0 1.36 0 0 Z " fill="#863B34" transform="translate(81,190)"/>
<path d="M0 0 C6.625 0.75 6.625 0.75 10 3 C10.6875 5.125 10.6875 5.125 11 7 C8.525 6.01 8.525 6.01 6 5 C6 4.34 6 3.68 6 3 C4.02 2.34 2.04 1.68 0 1 C0 0.67 0 0.34 0 0 Z " fill="#954132" transform="translate(189,83)"/>
<path d="M0 0 C-0.66 0 -1.32 0 -2 0 C-2 0.66 -2 1.32 -2 2 C-4.75078884 2.91692961 -6.35948913 3.10886083 -9.1875 3.0625 C-11.0746875 3.0315625 -11.0746875 3.0315625 -13 3 C-8.8341563 0.22277086 -4.9360889 -1.89849573 0 0 Z " fill="#983B36" transform="translate(178,226)"/>
<path d="M0 0 C-0.33 0.66 -0.66 1.32 -1 2 C-8.64288227 4.38056989 -8.64288227 4.38056989 -13 3 C-11.5903653 2.29819469 -10.17192359 1.61406042 -8.75 0.9375 C-7.96109375 0.55464844 -7.1721875 0.17179687 -6.359375 -0.22265625 C-3.74006478 -1.08564091 -2.55144824 -0.93045933 0 0 Z " fill="#963E37" transform="translate(105,19)"/>
<path d="M0 0 C2.64 0.33 5.28 0.66 8 1 C8.33 1.99 8.66 2.98 9 4 C9.66 4.33 10.32 4.66 11 5 C10.01 5 9.02 5 8 5 C8 4.34 8 3.68 8 3 C5.69 3 3.38 3 1 3 C0.67 2.01 0.34 1.02 0 0 Z " fill="#E45D55" transform="translate(188,17)"/>
<path d="M0 0 C0 0.99 0 1.98 0 3 C-3.46669756 6.30545582 -6.39137539 8.50897439 -11 10 C-7.50640535 6.40365256 -3.88901869 3.16548033 0 0 Z " fill="#DC5C55" transform="translate(204,209)"/>
<path d="M0 0 C0.66 0.33 1.32 0.66 2 1 C0.68 4.96 -0.64 8.92 -2 13 C-2.33 13 -2.66 13 -3 13 C-3.31563182 7.73946963 -2.66590937 4.55426184 0 0 Z " fill="#EB584B" transform="translate(75,117)"/>
<path d="M0 0 C3.24299151 2.38957269 5.50902342 4.2047869 7 8 C4.08482708 6.92598892 2.22189824 6.22189824 0 4 C0 2.68 0 1.36 0 0 Z " fill="#DE5D58" transform="translate(84,197)"/>
<path d="M0 0 C0.33 1.32 0.66 2.64 1 4 C0.34 4 -0.32 4 -1 4 C-1 4.66 -1 5.32 -1 6 C-2.32 6 -3.64 6 -5 6 C-4.1875 3.5625 -4.1875 3.5625 -3 1 C-2.01 0.67 -1.02 0.34 0 0 Z " fill="#A9463F" transform="translate(216,195)"/>
<path d="M0 0 C0.33 0 0.66 0 1 0 C1.37211538 7.56634615 1.37211538 7.56634615 -0.51171875 9.76171875 C-1.00285156 10.17035156 -1.49398437 10.57898438 -2 11 C-1.85892253 9.54119891 -1.71197585 8.08296449 -1.5625 6.625 C-1.48128906 5.81289062 -1.40007812 5.00078125 -1.31640625 4.1640625 C-1 2 -1 2 0 0 Z " fill="#B14B42" transform="translate(225,173)"/>
<path d="M0 0 C0.33 0.66 0.66 1.32 1 2 C-0.70135776 5.23257974 -2.76039553 8.12050853 -5 11 C-5.66 10.67 -6.32 10.34 -7 10 C-6.02223933 8.51990357 -5.0427506 7.04094856 -4.0625 5.5625 C-3.51722656 4.73878906 -2.97195312 3.91507813 -2.41015625 3.06640625 C-1 1 -1 1 0 0 Z " fill="#EA594F" transform="translate(48,55)"/>
<path d="M0 0 C0.99 0 1.98 0 3 0 C6 4.22222222 6 4.22222222 6 7 C4.125 6.875 4.125 6.875 2 6 C0.75 2.9375 0.75 2.9375 0 0 Z " fill="#C04D46" transform="translate(210,98)"/>
<path d="M0 0 C3.96 0.99 3.96 0.99 8 2 C5.24075815 3.80411967 4.11027897 4.0127245 0.75 3.625 C-0.1575 3.41875 -1.065 3.2125 -2 3 C-1.34 2.01 -0.68 1.02 0 0 Z " fill="#B0483D" transform="translate(120,224)"/>
<path d="M0 0 C0.66 1.32 1.32 2.64 2 4 C0.35 5.65 -1.3 7.3 -3 9 C-3 5.30581799 -1.71820705 3.22163822 0 0 Z " fill="#DD5C52" transform="translate(222,184)"/>
<path d="M0 0 C1.25127906 3.54667178 0.72285053 5.72253438 -0.4375 9.25 C-0.72496094 10.14203125 -1.01242188 11.0340625 -1.30859375 11.953125 C-1.53675781 12.62859375 -1.76492187 13.3040625 -2 14 C-3.15431591 10.05102453 -2.80958981 7.04794905 -2 3 C-1.34 2.01 -0.68 1.02 0 0 Z " fill="#863A36" transform="translate(75,123)"/>
<path d="M0 0 C0.99 0.66 1.98 1.32 3 2 C0.03 4.475 0.03 4.475 -3 7 C-3.1875 4.625 -3.1875 4.625 -3 2 C-2.01 1.34 -1.02 0.68 0 0 Z " fill="#B44C43" transform="translate(286,55)"/>
<path d="M0 0 C1.65 0 3.3 0 5 0 C1.87378374 3.39417765 -0.56541027 5.6062718 -5 7 C-4.0409375 6.1028125 -4.0409375 6.1028125 -3.0625 5.1875 C-0.79689611 3.09189663 -0.79689611 3.09189663 0 0 Z " fill="#843733" transform="translate(232,262)"/>
<path d="M0 0 C3.14737182 0.69941596 6.02588876 1.76078698 9 3 C9 3.33 9 3.66 9 4 C3.48 4.368 3.48 4.368 1.125 2.5625 C0 1 0 1 0 0 Z " fill="#913C3A" transform="translate(196,18)"/>
<path d="M0 0 C0.33 0.66 0.66 1.32 1 2 C1.66 2 2.32 2 3 2 C4.35439668 4.70879335 4.06501451 7.00933268 4 10 C1.7448078 7.7448078 1.02276532 5.9952413 0 3 C0 2.01 0 1.02 0 0 Z " fill="#A74543" transform="translate(17,197)"/>
<path d="M0 0 C2.50298434 2.93828597 3.46930939 5.17902761 4 9 C2.68 8.67 1.36 8.34 0 8 C0 5.36 0 2.72 0 0 Z " fill="#8A3834" transform="translate(278,93)"/>
<path d="M0 0 C1.32 0 2.64 0 4 0 C3.625 2.4375 3.625 2.4375 3 5 C2.01 5.495 2.01 5.495 1 6 C0.67 4.02 0.34 2.04 0 0 Z " fill="#CD5146" transform="translate(61,277)"/>
<path d="M0 0 C0.99 0 1.98 0 3 0 C2.67 1.32 2.34 2.64 2 4 C0.68 4.33 -0.64 4.66 -2 5 C-2 4.01 -2 3.02 -2 2 C-1.34 2 -0.68 2 0 2 C0 1.34 0 0.68 0 0 Z " fill="#B74A45" transform="translate(225,266)"/>
<path d="M0 0 C0.66 0.33 1.32 0.66 2 1 C0.02 3.31 -1.96 5.62 -4 8 C-4.33 6.68 -4.66 5.36 -5 4 C-4.01 4 -3.02 4 -2 4 C-1.34 2.68 -0.68 1.36 0 0 Z " fill="#7B3530" transform="translate(90,98)"/>
</svg>
